<mxfile host="app.diagrams.net" modified="2021-03-06T09:40:30.944Z" agent="5.0 (Windows NT 10.0; Win64; x64) AppleWebKit/537.36 (KHTML, like Gecko) Chrome/90.0.4428.0 Safari/537.36 Edg/90.0.817.0" etag="cfrf9pG4U7LslKXJcz9W" version="14.4.4" type="github">
  <diagram id="C5RBs43oDa-KdzZeNtuy" name="Page-1">
    <mxGraphModel dx="1422" dy="794" grid="1" gridSize="10" guides="1" tooltips="1" connect="1" arrows="1" fold="1" page="1" pageScale="1" pageWidth="827" pageHeight="1169" math="0" shadow="0">
      <root>
        <mxCell id="WIyWlLk6GJQsqaUBKTNV-0" />
        <mxCell id="WIyWlLk6GJQsqaUBKTNV-1" parent="WIyWlLk6GJQsqaUBKTNV-0" />
        <mxCell id="4BXCVqnNxp8ddijggPDn-0" value="&amp;lt;&amp;lt;享钱异步通知接收地址&amp;gt;&amp;gt;&lt;br&gt;&lt;b&gt;XQCallbackController&lt;/b&gt;" style="swimlane;fontStyle=0;align=center;verticalAlign=top;childLayout=stackLayout;horizontal=1;startSize=55;horizontalStack=0;resizeParent=1;resizeParentMax=0;resizeLast=0;collapsible=0;marginBottom=0;html=1;" vertex="1" parent="WIyWlLk6GJQsqaUBKTNV-1">
          <mxGeometry x="40" y="80" width="170" height="95" as="geometry" />
        </mxCell>
        <mxCell id="4BXCVqnNxp8ddijggPDn-6" value="方法" style="text;html=1;strokeColor=none;fillColor=none;align=center;verticalAlign=middle;spacingLeft=4;spacingRight=4;overflow=hidden;rotatable=0;points=[[0,0.5],[1,0.5]];portConstraint=eastwest;" vertex="1" parent="4BXCVqnNxp8ddijggPDn-0">
          <mxGeometry y="55" width="170" height="20" as="geometry" />
        </mxCell>
        <mxCell id="4BXCVqnNxp8ddijggPDn-7" value="+PayNotify()" style="text;html=1;strokeColor=none;fillColor=none;align=left;verticalAlign=middle;spacingLeft=4;spacingRight=4;overflow=hidden;rotatable=0;points=[[0,0.5],[1,0.5]];portConstraint=eastwest;" vertex="1" parent="4BXCVqnNxp8ddijggPDn-0">
          <mxGeometry y="75" width="170" height="20" as="geometry" />
        </mxCell>
      </root>
    </mxGraphModel>
  </diagram>
</mxfile>
